<?xml version="1.0" standalone="no"?>
<!DOCTYPE svg PUBLIC "-//W3C//DTD SVG 20010904//EN"
 "http://www.w3.org/TR/2001/REC-SVG-20010904/DTD/svg10.dtd">
<svg version="1.0" xmlns="http://www.w3.org/2000/svg"
 width="251.000000pt" height="251.000000pt" viewBox="0 0 251.000000 251.000000"
 preserveAspectRatio="xMidYMid meet">
<metadata>
Created by potrace 1.11, written by Peter Selinger 2001-2013
</metadata>
<g transform="translate(0.000000,251.000000) scale(0.100000,-0.100000)"
fill="#000000" stroke="none">
<path d="M2071 2431 c-1 -22 -3 -23 -48 -16 -79 12 -235 10 -283 -4 -56 -15
-175 -72 -215 -103 -33 -25 -169 -160 -200 -198 -11 -14 -26 -37 -32 -52 -13
-30 -33 -38 -33 -13 0 8 -4 15 -10 15 -5 0 -10 6 -10 14 0 8 -3 16 -8 18 -4 2
-23 23 -42 48 -51 66 -187 190 -208 190 -6 0 -12 3 -14 8 -3 6 -22 16 -98 50
-78 35 -255 48 -345 25 -49 -12 -159 -62 -163 -74 -2 -5 -10 -9 -17 -9 -7 0
-46 -33 -87 -73 -118 -118 -188 -285 -188 -450 0 -147 53 -346 134 -507 39
-78 61 -115 69 -118 4 -2 7 -8 7 -13 0 -5 13 -27 28 -48 l28 -39 65 44 c108
72 181 165 214 274 9 30 19 61 21 69 6 17 84 -60 84 -83 0 -9 3 -16 8 -16 4 0
13 -15 21 -32 21 -50 178 -199 241 -229 64 -31 149 -59 180 -59 12 0 18 -5 15
-10 -3 -6 -28 -10 -55 -10 -35 0 -71 -10 -125 -35 -114 -52 -184 -105 -248
-188 -12 -15 -30 -38 -40 -50 -11 -12 -25 -34 -33 -49 -19 -36 -45 -50 -64
-35 -8 7 -28 30 -44 52 -16 22 -37 47 -45 56 -9 9 -30 31 -47 50 -16 19 -45
45 -63 59 -18 14 -38 30 -44 35 -20 17 -96 65 -103 65 -4 0 -15 6 -23 14 -23
20 -229 27 -217 7 4 -5 25 -12 48 -16 23 -4 49 -11 58 -16 8 -4 36 -16 62 -26
27 -10 48 -21 48 -25 0 -5 6 -8 13 -8 38 0 190 -132 247 -216 57 -81 118 -220
120 -269 0 -11 6 -27 13 -37 12 -15 14 -14 24 10 6 15 18 59 28 97 25 97 30
101 68 57 18 -20 61 -66 97 -103 154 -157 385 -402 388 -410 2 -5 10 -9 17 -9
13 0 169 155 331 329 38 41 94 100 124 131 60 63 170 185 210 233 14 16 36 42
50 56 14 14 41 46 60 71 19 25 40 50 46 55 19 18 144 194 144 204 0 5 4 11 9
13 18 7 151 264 151 292 0 6 4 16 9 21 6 6 14 28 20 50 5 22 17 67 26 100 24
87 30 322 10 361 -8 16 -15 39 -15 51 0 12 -4 24 -9 27 -5 3 -12 18 -15 32
-19 75 -139 214 -237 276 -65 41 -87 50 -94 38 -15 -24 45 -180 68 -180 19 0
107 -102 107 -123 0 -5 -7 -7 -15 -3 -13 5 -13 2 1 -19 9 -14 21 -25 26 -25 5
0 17 -9 26 -19 10 -11 34 -28 54 -39 l37 -19 -52 -24 c-79 -37 -160 -125 -210
-230 -23 -49 -46 -88 -52 -89 -5 0 -35 39 -65 86 -79 123 -200 234 -256 234
-32 0 -23 16 13 24 85 20 191 107 240 196 30 56 80 265 70 292 -3 7 -6 2 -6
-11z m-1306 -141 c3 -5 16 -10 27 -10 32 0 148 -60 188 -97 19 -18 38 -33 43
-33 4 0 7 -4 7 -10 0 -5 -39 -8 -97 -5 -54 2 -163 0 -243 -6 -80 -5 -200 -11
-268 -13 l-123 -3 23 25 c62 71 176 142 226 142 11 0 24 5 27 10 3 6 46 10 95
10 49 0 92 -4 95 -10z m1209 -6 c15 -40 -2 -152 -27 -179 -8 -8 -20 -10 -34
-4 -12 4 -112 9 -223 10 -214 1 -208 0 -165 44 43 45 185 125 222 125 12 0 25
5 28 10 3 6 48 10 100 10 75 0 94 -3 99 -16z"/>
</g>
</svg>
